<svg width="164" height="184" viewBox="0 0 164 184" fill="none" xmlns="http://www.w3.org/2000/svg">
<path d="M73.1935 4.94025C78.6635 1.87168 85.3365 1.87167 90.8065 4.94024L154.807 40.8427C160.484 44.0279 164 50.0309 164 56.5413V127.459C164 133.969 160.484 139.972 154.807 143.157L90.8065 179.06C85.3365 182.128 78.6635 182.128 73.1935 179.06L9.19348 143.157C3.51549 139.972 0 133.969 0 127.459V56.5413C0 50.0309 3.5155 44.0279 9.19348 40.8427L73.1935 4.94025Z" fill="#F6F7FA"/>
<path d="M116.5 132.55H47.5C40.9 132.55 35.5 127.15 35.5 120.55V110.05H128.5V120.55C128.5 127.15 123.1 132.55 116.5 132.55Z" fill="white"/>
<path d="M124 107.05C124 105.25 124.75 98.8001 120.4 97.7501C120.1 97.0001 118.45 93.55 117.1 90.55C115.9 87.85 113.05 86.05 110.05 86.05H98.5V114.55H123.4C123.4 114.55 125.5 113.2 125.5 111.55C125.5 110.05 125.8 107.5 124 107.05Z" fill="white"/>
<path d="M46 56.05H43" stroke="#061237" stroke-width="3" stroke-miterlimit="10"/>
<path d="M40 56.05H37" stroke="#061237" stroke-width="3" stroke-miterlimit="10"/>
<path d="M90.998 56.05H76.2979C75.6979 54.55 74.048 53.35 72.248 53.35C71.648 53.35 71.1979 53.35 70.5979 53.65C69.5479 50.95 66.998 49 63.998 49C60.098 49 56.948 53.05 56.948 56.05H49.1479" fill="white"/>
<path d="M90.998 56.05H76.2979C75.6979 54.55 74.048 53.35 72.248 53.35C71.648 53.35 71.1979 53.35 70.5979 53.65C69.5479 50.95 66.998 49 63.998 49C60.098 49 56.948 53.05 56.948 56.05H49.1479" stroke="#061237" stroke-width="3" stroke-miterlimit="10"/>
<path d="M127 63.5499H121C119.95 62.0499 118 60.3999 115.45 60.6999C114.4 58.8999 112.45 57.3999 110.05 57.3999C106.6 57.3999 103.9 60.3999 103.9 63.3999H89.35" stroke="#061237" stroke-width="3" stroke-miterlimit="10"/>
<path d="M98.5 114.55H123.4C123.4 114.55 125.5 113.2 125.5 111.55C125.5 110.05 125.95 107.5 124 107.05C124 105.25 124.75 98.8001 120.4 97.7501C120.1 97.0001 118.45 93.55 117.1 90.55C115.9 87.85 113.05 86.05 110.05 86.05H98.5" stroke="#061237" stroke-width="3" stroke-miterlimit="10"/>
<path d="M113.5 97.9001L111.1 92.6501C110.95 92.2001 110.5 92.05 110.05 92.05H104.5V99.55H112.45C113.35 99.55 113.8 98.6501 113.5 97.9001Z" fill="white" stroke="#061237" stroke-width="3" stroke-miterlimit="10"/>
<path d="M98.5 72.55H49V114.55H98.5V72.55Z" fill="white" stroke="#061237" stroke-width="3" stroke-miterlimit="10"/>
<path d="M68.5 114.55C68.5 117.85 65.8 120.55 62.5 120.55C59.2 120.55 56.5 117.85 56.5 114.55C56.5 111.25 59.2 108.55 62.5 108.55C65.8 108.55 68.5 111.25 68.5 114.55Z" fill="white" stroke="#061237" stroke-width="3" stroke-miterlimit="10"/>
<path d="M115 114.55C115 117.85 112.3 120.55 109 120.55C105.7 120.55 103 117.85 103 114.55C103 111.25 105.7 108.55 109 108.55C112.3 108.55 115 111.25 115 114.55Z" fill="white" stroke="#061237" stroke-width="3" stroke-miterlimit="10"/>
<path d="M79 92.05H40V120.55H79V92.05Z" fill="white" stroke="#E01760" stroke-width="3" stroke-miterlimit="10"/>
<path d="M65.5 92.05H53.5V99.55H65.5V92.05Z" fill="white" stroke="#E01760" stroke-width="3" stroke-miterlimit="10"/>
<path d="M44.5 114.55H47.5" stroke="#061237" stroke-width="3" stroke-miterlimit="10"/>
<path d="M50.5 114.55H53.5" stroke="#061237" stroke-width="3" stroke-miterlimit="10"/>
<path d="M56.5 114.55H59.5" stroke="#061237" stroke-width="3" stroke-miterlimit="10"/>
</svg>
