<svg width="164" height="184" viewBox="0 0 164 184" fill="none" xmlns="http://www.w3.org/2000/svg">
<path d="M73.1935 4.94025C78.6635 1.87168 85.3365 1.87167 90.8065 4.94024L154.807 40.8427C160.485 44.0279 164 50.0309 164 56.5413V127.459C164 133.969 160.484 139.972 154.807 143.157L90.8065 179.06C85.3365 182.128 78.6635 182.128 73.1935 179.06L9.19348 143.157C3.51549 139.972 0 133.969 0 127.459V56.5413C0 50.0309 3.5155 44.0279 9.19348 40.8427L73.1935 4.94025Z" fill="white"/>
<path d="M101.652 120.941C121.116 109.92 127.961 85.2073 116.94 65.7431C105.92 46.2789 81.2073 39.4339 61.7431 50.4544C42.2789 61.4748 35.4339 86.1876 46.4543 105.652C57.4748 125.116 82.1875 131.961 101.652 120.941Z" fill="white"/>
<path d="M105.707 46.7029H57.7067L44.2067 58.1029V61.7029H119.207V58.1029L105.707 46.7029Z" fill="white"/>
<path d="M104.207 61.7029V58.7029L96.7067 49.7029V46.7029" stroke="#E01760" stroke-width="2.25" stroke-miterlimit="10"/>
<path d="M89.2067 61.7029V58.7029L86.2067 49.7029V46.7029" stroke="#E01760" stroke-width="2.25" stroke-miterlimit="10"/>
<path d="M59.2067 61.7029V58.7029L66.7067 49.7029V46.7029" stroke="#E01760" stroke-width="2.25" stroke-miterlimit="10"/>
<path d="M74.2067 61.7029V58.7029L77.2067 49.7029V46.7029" stroke="#E01760" stroke-width="2.25" stroke-miterlimit="10"/>
<path d="M99.7067 124.703H63.7067C58.7567 124.703 54.7067 120.653 54.7067 115.703V70.7029H108.707V115.703C108.707 120.653 104.657 124.703 99.7067 124.703Z" fill="white" stroke="#061237" stroke-width="2.25" stroke-miterlimit="10"/>
<path d="M107.207 46.7029H56.2067V43.7029C56.2067 38.7529 60.2567 34.7029 65.2067 34.7029H98.2067C103.157 34.7029 107.207 38.7529 107.207 43.7029V46.7029Z" fill="white" stroke="#061237" stroke-width="2.25" stroke-miterlimit="10"/>
<path d="M44.2067 61.7029V70.7029C44.2067 74.6029 47.8067 78.2029 51.7067 78.2029C55.6067 78.2029 59.2067 74.6029 59.2067 70.7029C59.2067 74.6029 62.8067 78.2029 66.7067 78.2029C70.6067 78.2029 74.2067 74.6029 74.2067 70.7029C74.2067 74.6029 77.8067 78.2029 81.7067 78.2029C85.6067 78.2029 89.2067 74.6029 89.2067 70.7029C89.2067 74.6029 92.8067 78.2029 96.7067 78.2029C100.607 78.2029 104.207 74.6029 104.207 70.7029C104.207 74.6029 107.807 78.2029 111.707 78.2029C115.607 78.2029 119.207 74.6029 119.207 70.7029V61.7029H44.2067Z" fill="white" stroke="#E01760" stroke-width="2.25" stroke-miterlimit="10"/>
<path d="M105.707 46.7029H57.7067L44.2067 58.1029V61.7029H119.207V58.1029L105.707 46.7029Z" stroke="#E01760" stroke-width="2.25" stroke-miterlimit="10"/>
<path d="M59.2067 67.7029V70.7029" stroke="#E01760" stroke-width="2.25" stroke-miterlimit="10"/>
<path d="M74.2067 67.7029V70.7029" stroke="#E01760" stroke-width="2.25" stroke-miterlimit="10"/>
<path d="M89.2067 67.7029V70.7029" stroke="#E01760" stroke-width="2.25" stroke-miterlimit="10"/>
<path d="M104.207 67.7029V70.7029" stroke="#E01760" stroke-width="2.25" stroke-miterlimit="10"/>
<path d="M54.7067 111.203H108.707" stroke="#061237" stroke-width="2.25" stroke-miterlimit="10"/>
<path d="M77.2067 117.203H86.2067" stroke="#061237" stroke-width="2.25" stroke-miterlimit="10"/>
<path d="M103.307 93.2029L90.7067 105.803" stroke="#061237" stroke-width="2.25" stroke-miterlimit="10"/>
<path d="M103.457 101.303L98.9567 105.803" stroke="#061237" stroke-width="2.25" stroke-miterlimit="10"/>
</svg>
