<svg width="164" height="184" viewBox="0 0 164 184" fill="none" xmlns="http://www.w3.org/2000/svg">
<path d="M73.1935 4.94025C78.6635 1.87168 85.3365 1.87167 90.8065 4.94024L154.807 40.8427C160.485 44.0279 164 50.0309 164 56.5413V127.459C164 133.969 160.484 139.972 154.807 143.157L90.8065 179.06C85.3365 182.128 78.6635 182.128 73.1935 179.06L9.19348 143.157C3.51549 139.972 0 133.969 0 127.459V56.5413C0 50.0309 3.5155 44.0279 9.19348 40.8427L73.1935 4.94025Z" fill="white"/>
<path d="M82 88.25C76.45 88.25 65.5 91.25 65.5 97.25V115.4C65.5 118.85 68.05 121.25 71.5 121.25H73V127.25H91V121.25H92.5C95.95 121.25 98.5 118.85 98.5 115.4V97.25C98.5 91.4 87.55 88.25 82 88.25Z" fill="white"/>
<path d="M82.15 44.75C59.65 44.75 41.5 62.9 41.5 85.4C41.5 87.95 41.8 90.5 42.25 92.9C45.7 89.75 52.45 88.25 56.5 88.25H107.5C111.7 88.25 118.75 89.9 122.05 93.2C122.5 90.65 122.8 88.1 122.8 85.55C122.8 63.05 104.65 44.75 82.15 44.75Z" fill="white"/>
<path d="M92.5 121.4C95.95 121.4 98.5 118.85 98.5 115.4V97.25C98.5 91.25 87.55 88.25 82 88.25C76.45 88.25 65.5 91.25 65.5 97.25V115.4C65.5 118.85 68.05 121.4 71.5 121.4" stroke="#E01760" stroke-width="2.25" stroke-miterlimit="10"/>
<path d="M82 83.75C86.2 83.75 89.5 80.3 89.5 76.1V73.55C89.5 69.35 86.2 65.9 82 65.9C77.8 65.9 74.5 69.35 74.5 73.55V76.1C74.5 80.3 77.8 83.75 82 83.75Z" fill="white" stroke="#E01760" stroke-width="2.25" stroke-miterlimit="10"/>
<path d="M70 62.6C74.2 62.6 77.5 59.15 77.5 54.95V52.4C77.5 48.2 74.2 44.75 70 44.75C65.8 44.75 62.5 48.2 62.5 52.4V54.95C62.5 59.15 65.8 62.6 70 62.6Z" fill="white" stroke="#061237" stroke-width="2.25" stroke-miterlimit="10"/>
<path d="M94 62.6C98.2 62.6 101.5 59.15 101.5 54.95V52.4C101.5 48.2 98.2 44.75 94 44.75C89.8 44.75 86.5 48.2 86.5 52.4V54.95C86.5 59.15 89.8 62.6 94 62.6Z" fill="white" stroke="#061237" stroke-width="2.25" stroke-miterlimit="10"/>
<path d="M91 127.25V103.25" stroke="#E01760" stroke-width="2.25" stroke-miterlimit="10"/>
<path d="M73 103.25V127.25" stroke="#E01760" stroke-width="2.25" stroke-miterlimit="10"/>
<path d="M47.5 127.25V103.25" stroke="#061237" stroke-width="2.25" stroke-miterlimit="10"/>
<path d="M56.5 83.6C52.3 83.6 49 80.15 49 75.95V73.4C49 69.2 52.3 65.75 56.5 65.75C60.7 65.75 64 69.2 64 73.4V75.95C64 80.15 60.7 83.6 56.5 83.6Z" fill="white" stroke="#061237" stroke-width="2.25" stroke-miterlimit="10"/>
<path d="M65.5 90.05C62.35 88.85 58.9 88.25 56.5 88.25C50.95 88.25 40 91.25 40 97.25V115.4C40 118.85 42.55 121.4 46 121.4" stroke="#061237" stroke-width="2.25" stroke-miterlimit="10"/>
<path d="M116.5 127.25V103.25" stroke="#061237" stroke-width="2.25" stroke-miterlimit="10"/>
<path d="M107.5 83.6C111.7 83.6 115 80.15 115 75.95V73.4C115 69.2 111.7 65.75 107.5 65.75C103.3 65.75 100 69.2 100 73.4V75.95C100 80.15 103.3 83.6 107.5 83.6Z" fill="white" stroke="#061237" stroke-width="2.25" stroke-miterlimit="10"/>
<path d="M98.5 90.05C101.65 88.85 105.1 88.25 107.5 88.25C113.05 88.25 124 91.25 124 97.25V115.4C124 118.85 121.45 121.4 118 121.4" stroke="#061237" stroke-width="2.25" stroke-miterlimit="10"/>
</svg>
