<svg width="164" height="184" viewBox="0 0 164 184" fill="none" xmlns="http://www.w3.org/2000/svg">
<path d="M73.1935 4.94025C78.6635 1.87168 85.3365 1.87167 90.8065 4.94024L154.807 40.8427C160.485 44.0279 164 50.0309 164 56.5413V127.459C164 133.969 160.484 139.972 154.807 143.157L90.8065 179.06C85.3365 182.128 78.6635 182.128 73.1935 179.06L9.19348 143.157C3.51549 139.972 0 133.969 0 127.459V56.5413C0 50.0309 3.5155 44.0279 9.19348 40.8427L73.1935 4.94025Z" fill="white"/>
<g clip-path="url(#clip0_2012_533)">
<path d="M112.777 116.777C129.764 99.7889 129.764 72.2465 112.777 55.2589C95.7889 38.2712 68.2465 38.2712 51.2588 55.2589C34.2712 72.2465 34.2712 99.7889 51.2588 116.777C68.2465 133.764 95.7889 133.764 112.777 116.777Z" fill="white"/>
<path d="M82.0511 72.5137C87.4511 72.5137 91.0511 71.6137 97.0511 69.5137V65.0137C97.0511 62.6137 88.8011 59.0137 82.0511 59.0137C75.3011 59.0137 67.0511 62.6137 67.0511 65.0137V69.5137C73.0511 71.6137 76.6511 72.5137 82.0511 72.5137Z" fill="white" stroke="#E01760" stroke-width="2.25" stroke-miterlimit="10"/>
<path d="M82.0511 41.0137C78.1511 41.0137 74.5511 44.1637 74.5511 48.0637V53.4637C74.5511 57.3637 78.1511 60.5137 82.0511 60.5137C85.9511 60.5137 89.5511 57.3637 89.5511 53.4637V48.0637C89.5511 44.1637 85.9511 41.0137 82.0511 41.0137Z" fill="white" stroke="#E01760" stroke-width="2.25" stroke-miterlimit="10"/>
<path d="M82.0511 126.514C87.4511 126.514 91.0511 125.614 97.0511 123.514V119.014C97.0511 116.614 88.8011 113.014 82.0511 113.014C75.3011 113.014 67.0511 116.614 67.0511 119.014V123.514C73.0511 125.614 76.6511 126.514 82.0511 126.514Z" fill="white" stroke="#061237" stroke-width="2.25" stroke-miterlimit="10"/>
<path d="M82.0511 95.0137C78.1511 95.0137 74.5511 98.1637 74.5511 102.064V107.464C74.5511 111.364 78.1511 114.514 82.0511 114.514C85.9511 114.514 89.5511 111.364 89.5511 107.464V102.064C89.5511 98.1637 85.9511 95.0137 82.0511 95.0137Z" fill="white" stroke="#061237" stroke-width="2.25" stroke-miterlimit="10"/>
<path d="M50.5511 126.514C55.9511 126.514 59.5511 125.614 65.5511 123.514V119.014C65.5511 116.614 57.3011 113.014 50.5511 113.014C43.8011 113.014 35.5511 116.614 35.5511 119.014V123.514C41.5511 125.614 45.1511 126.514 50.5511 126.514Z" fill="white" stroke="#061237" stroke-width="2.25" stroke-miterlimit="10"/>
<path d="M50.5511 95.0137C46.6511 95.0137 43.0511 98.1637 43.0511 102.064V107.464C43.0511 111.364 46.6511 114.514 50.5511 114.514C54.4511 114.514 58.0511 111.364 58.0511 107.464V102.064C58.0511 98.1637 54.4511 95.0137 50.5511 95.0137Z" fill="white" stroke="#061237" stroke-width="2.25" stroke-miterlimit="10"/>
<path d="M112.051 126.514C117.451 126.514 121.051 125.614 127.051 123.514V119.014C127.051 116.614 118.801 113.014 112.051 113.014C105.301 113.014 97.0511 116.614 97.0511 119.014V123.514C103.051 125.614 106.651 126.514 112.051 126.514Z" fill="white" stroke="#061237" stroke-width="2.25" stroke-miterlimit="10"/>
<path d="M112.051 95.0137C108.151 95.0137 104.551 98.1637 104.551 102.064V107.464C104.551 111.364 108.151 114.514 112.051 114.514C115.951 114.514 119.551 111.364 119.551 107.464V102.064C119.551 98.1637 115.951 95.0137 112.051 95.0137Z" fill="white" stroke="#061237" stroke-width="2.25" stroke-miterlimit="10"/>
<path d="M82.0511 77.0137V90.5137" stroke="#061237" stroke-width="2.25" stroke-miterlimit="10"/>
<path d="M112.051 90.5137V83.0137H50.5511V90.5137" stroke="#061237" stroke-width="2.25" stroke-miterlimit="10"/>
</g>
<defs>
<clipPath id="clip0_2012_533">
<rect width="112.5" height="112.5" fill="white" transform="translate(25.75 29.75)"/>
</clipPath>
</defs>
</svg>
