<svg width="164" height="184" viewBox="0 0 164 184" fill="none" xmlns="http://www.w3.org/2000/svg">
<path d="M73.1935 4.94025C78.6635 1.87168 85.3365 1.87167 90.8065 4.94024L154.807 40.8427C160.484 44.0279 164 50.0309 164 56.5413V127.459C164 133.969 160.484 139.972 154.807 143.157L90.8065 179.06C85.3365 182.128 78.6635 182.128 73.1935 179.06L9.19348 143.157C3.51549 139.972 0 133.969 0 127.459V56.5413C0 50.0309 3.5155 44.0279 9.19348 40.8427L73.1935 4.94025Z" fill="#F6F7FA"/>
<path d="M124 118.25H61C59.35 118.25 58 116.9 58 115.25V67.25C58 65.6 59.35 64.25 61 64.25H124C125.65 64.25 127 65.6 127 67.25V115.25C127 116.9 125.65 118.25 124 118.25Z" fill="white" stroke="#061237" stroke-width="3" stroke-miterlimit="10" stroke-linejoin="round"/>
<path d="M74.1659 104.51V78.1846C74.1659 78.1846 69.6659 78.8596 69.6659 84.9346C69.6659 87.4846 69.6659 92.4346 69.6659 92.4346L71.1659 93.9346L70.4159 104.435C70.3409 105.26 71.3909 105.935 72.4409 105.935C73.4159 105.935 74.1659 105.26 74.1659 104.51Z" fill="white"/>
<path d="M110.916 88.6846V104.435C110.916 105.26 111.591 105.935 112.416 105.935C113.241 105.935 113.916 105.26 113.916 104.435V88.6846H110.916Z" fill="white"/>
<path d="M71.5841 104.678C71.4605 104.59 71.4234 104.529 71.4135 104.506L72.0971 94.9346H73.166V104.51C73.166 104.541 73.149 104.633 73.0222 104.741C72.8987 104.846 72.6985 104.935 72.441 104.935C72.114 104.935 71.7925 104.825 71.5841 104.678ZM71.412 104.502C71.4104 104.497 71.4101 104.495 71.4104 104.495C71.4107 104.495 71.4115 104.497 71.412 104.502Z" fill="white" stroke="#E01760" stroke-width="2"/>
<path d="M112.416 78.1846V84.9346" stroke="#E01760" stroke-width="2" stroke-miterlimit="10" stroke-linecap="round"/>
<path d="M74.1659 104.51V78.1846C74.1659 78.1846 69.6659 78.8596 69.6659 84.9346C69.6659 87.4846 69.6659 92.4346 69.6659 92.4346L71.1659 93.9346L70.4159 104.435C70.3409 105.26 71.3909 105.935 72.4409 105.935C73.4159 105.935 74.1659 105.26 74.1659 104.51Z" fill="white" stroke="#E01760" stroke-width="2" stroke-miterlimit="10" stroke-linecap="round"/>
<path d="M92.1659 105.935C100.036 105.935 106.416 99.5546 106.416 91.6846C106.416 83.8145 100.036 77.4346 92.1659 77.4346C84.2958 77.4346 77.9159 83.8145 77.9159 91.6846C77.9159 99.5546 84.2958 105.935 92.1659 105.935Z" fill="white" stroke="#E01760" stroke-width="2" stroke-miterlimit="10" stroke-linecap="round"/>
<path d="M97.3409 99.9345C95.8409 100.909 94.0409 101.434 92.1659 101.434C86.7659 101.434 82.4159 97.0845 82.4159 91.6845C82.4159 89.5095 83.1659 87.4845 84.3659 85.8345" fill="white"/>
<path d="M97.3409 99.9345C95.8409 100.909 94.0409 101.434 92.1659 101.434C86.7659 101.434 82.4159 97.0845 82.4159 91.6845C82.4159 89.5095 83.1659 87.4845 84.3659 85.8345" stroke="#E01760" stroke-width="2" stroke-miterlimit="10" stroke-linecap="round"/>
<path d="M87.2909 83.2096C88.7159 82.3846 90.3659 81.9346 92.1659 81.9346C97.5659 81.9346 101.916 86.2846 101.916 91.6846C101.916 93.7096 101.316 95.5846 100.266 97.1596" stroke="#E01760" stroke-width="2" stroke-miterlimit="10" stroke-linecap="round"/>
<path d="M109.416 78.1846V86.4346C109.416 87.5596 110.016 88.3846 110.916 88.6846V104.435C110.916 105.26 111.591 105.935 112.416 105.935C113.241 105.935 113.916 105.26 113.916 104.435V88.6846C114.816 88.3846 115.416 87.5596 115.416 86.4346V78.1846" stroke="#E01760" stroke-width="2" stroke-miterlimit="10" stroke-linecap="round"/>
<path d="M127 56.75H50.5" stroke="#061237" stroke-width="3" stroke-miterlimit="10" stroke-linecap="round" stroke-linejoin="round"/>
<path d="M71.5 55.25V64.25" stroke="#061237" stroke-width="3" stroke-miterlimit="10" stroke-linecap="round" stroke-linejoin="round"/>
<path d="M112 55.25V64.25" stroke="#061237" stroke-width="3" stroke-miterlimit="10" stroke-linecap="round" stroke-linejoin="round"/>
<path d="M50.5 49.25H43V127.25H50.5V49.25Z" fill="white" stroke="#061237" stroke-width="3" stroke-miterlimit="10" stroke-linecap="round" stroke-linejoin="round"/>
<path d="M56.5 134.75H37V131.75C37 129.2 38.95 127.25 41.5 127.25H52C54.55 127.25 56.5 129.2 56.5 131.75V134.75Z" fill="white" stroke="#061237" stroke-width="3" stroke-miterlimit="10" stroke-linecap="round" stroke-linejoin="round"/>
</svg>
