<svg width="164" height="184" viewBox="0 0 164 184" fill="none" xmlns="http://www.w3.org/2000/svg">
<path d="M73.1935 4.94025C78.6635 1.87168 85.3365 1.87167 90.8065 4.94024L154.807 40.8427C160.485 44.0279 164 50.0309 164 56.5413V127.459C164 133.969 160.484 139.972 154.807 143.157L90.8065 179.06C85.3365 182.128 78.6635 182.128 73.1935 179.06L9.19348 143.157C3.51549 139.972 0 133.969 0 127.459V56.5413C0 50.0309 3.5155 44.0279 9.19348 40.8427L73.1935 4.94025Z" fill="#F6F7FA"/>
<path d="M117.25 50.75H45.25C44.35 50.75 43.75 51.35 43.75 52.25V122.75C43.75 123.65 44.35 124.25 45.25 124.25H117.25C118.15 124.25 118.75 123.65 118.75 122.75V52.25C118.75 51.5 118.15 50.75 117.25 50.75Z" fill="white"/>
<path d="M45.25 52.25H117.246C117.248 52.2521 117.249 52.2543 117.249 52.2563C117.25 52.2568 117.25 52.2573 117.25 52.2577V58.25H45.25V52.25Z" fill="white" stroke="#061237" stroke-width="3"/>
<path d="M118.75 103.25V52.25C118.75 51.35 118.15 50.75 117.25 50.75H45.25C44.35 50.75 43.75 51.35 43.75 52.25V122.75C43.75 123.65 44.35 124.25 45.25 124.25H84.25" fill="white"/>
<path d="M118.75 103.25V52.25C118.75 51.35 118.15 50.75 117.25 50.75H45.25C44.35 50.75 43.75 51.35 43.75 52.25V122.75C43.75 123.65 44.35 124.25 45.25 124.25H84.25" stroke="#061237" stroke-width="3" stroke-miterlimit="10"/>
<path d="M46.75 59.75H115.75" stroke="#061237" stroke-width="3" stroke-miterlimit="10"/>
<path d="M48.25 55.25H51.25" stroke="#061237" stroke-width="3" stroke-miterlimit="10"/>
<path d="M54.25 55.25H57.25" stroke="#061237" stroke-width="3" stroke-miterlimit="10"/>
<path d="M88 88.9999L91.75 87.0499L89.05 80.4499L85 81.7999C83.95 80.2999 82.6 78.9499 81.1 77.8999L82.45 73.8499L75.85 71.1499L73.9 74.8999C72.1 74.5999 70.15 74.5999 68.35 74.8999L66.4 71.1499L59.8 73.8499L61.15 77.8999C59.65 78.9499 58.3 80.2999 57.25 81.7999L53.2 80.4499L50.5 87.0499L54.25 88.9999C53.95 90.7999 53.95 92.7499 54.25 94.5499L50.5 96.4999L53.2 103.1L57.25 101.75C58.3 103.25 59.65 104.6 61.15 105.65L59.8 109.7L66.4 112.4L68.35 108.65C70.15 108.95 72.1 108.95 73.9 108.65L75.85 112.4L82.45 109.7L81.1 105.65C82.6 104.6 83.95 103.25 85 101.75L89.05 103.1L91.75 96.4999L88 94.5499C88.3 92.7499 88.3 90.9499 88 88.9999ZM71.5 98.7499C67.75 98.7499 64.75 95.7499 64.75 91.9999C64.75 88.2499 67.75 85.2499 71.5 85.2499C75.25 85.2499 78.25 88.2499 78.25 91.9999C78.25 95.7499 75.25 98.7499 71.5 98.7499Z" fill="white" stroke="#E01760" stroke-width="3" stroke-miterlimit="10" stroke-linejoin="round"/>
<path d="M117.55 115.25L120.55 113.75L118.45 108.65L115.3 109.7C114.4 108.5 113.35 107.45 112.15 106.55L113.2 103.4L108.1 101.3L106.6 104.3C105.25 104 103.75 104 102.25 104.3L100.75 101.3L95.65 103.4L96.7 106.55C95.5 107.45 94.45 108.5 93.55 109.7L90.4 108.65L88.3 113.75L91.3 115.25C91 116.75 91 118.1 91.3 119.6L88.3 121.1L90.4 126.2L93.55 125.15C94.45 126.35 95.5 127.4 96.7 128.3L95.65 131.45L100.75 133.55L102.25 130.55C103.6 130.85 105.1 130.85 106.6 130.55L108.1 133.55L113.2 131.45L112.15 128.3C113.35 127.4 114.4 126.35 115.3 125.15L118.45 126.2L120.55 121.1L117.55 119.6C117.7 118.1 117.7 116.6 117.55 115.25ZM104.5 122.75C101.65 122.75 99.25 120.35 99.25 117.5C99.25 114.65 101.65 112.25 104.5 112.25C107.35 112.25 109.75 114.65 109.75 117.5C109.75 120.35 107.5 122.75 104.5 122.75Z" fill="white" stroke="#E01760" stroke-width="3" stroke-miterlimit="10"/>
</svg>
