<svg width="164" height="184" viewBox="0 0 164 184" fill="none" xmlns="http://www.w3.org/2000/svg">
<path d="M73.1935 4.94025C78.6635 1.87168 85.3365 1.87167 90.8065 4.94024L154.807 40.8427C160.484 44.0279 164 50.0309 164 56.5413V127.459C164 133.969 160.484 139.972 154.807 143.157L90.8065 179.06C85.3365 182.128 78.6635 182.128 73.1935 179.06L9.19348 143.157C3.51549 139.972 0 133.969 0 127.459V56.5413C0 50.0309 3.5155 44.0279 9.19348 40.8427L73.1935 4.94025Z" fill="#F6F7FA"/>
<path d="M97.5999 111.8C93.2499 115.25 87.8499 117.35 81.8499 117.35C68.7999 117.35 57.9999 107.45 56.4999 94.85H42.9999C44.4999 114.95 61.2999 130.85 81.8499 130.85C91.5999 130.85 100.45 127.25 107.2 121.4L97.5999 111.8Z" fill="white" stroke="#061237" stroke-width="3" stroke-miterlimit="10"/>
<path d="M77.3497 96.35C77.3497 98 78.6997 99.35 80.3497 99.35H83.3497C84.9997 99.35 86.3497 98 86.3497 96.35V95.45C86.3497 94.1 85.4497 93.05 84.2497 92.6L79.2997 90.95C78.0997 90.5 77.1997 89.45 77.1997 88.1V87.2C77.1997 85.55 78.5497 84.2 80.1997 84.2H83.1997C84.8497 84.2 86.1997 85.55 86.1997 87.2" stroke="#E01760" stroke-width="3" stroke-miterlimit="10"/>
<path d="M81.8497 84.35V79.85" stroke="#E01760" stroke-width="3" stroke-miterlimit="10"/>
<path d="M81.8497 99.35V103.85" stroke="#E01760" stroke-width="3" stroke-miterlimit="10"/>
<path d="M84.8499 53V66.5C97.4499 68 107.35 78.8 107.35 91.85C107.35 97.85 105.25 103.25 101.8 107.6L111.4 117.2C117.25 110.45 120.85 101.45 120.85 91.85C120.85 71.3 104.95 54.5 84.8499 53Z" fill="white" stroke="#E01760" stroke-width="3" stroke-miterlimit="10"/>
<path d="M61.8999 76.1L52.2999 66.5C47.0499 72.65 43.7499 80.3 42.9999 88.85H56.4999C57.0999 84.05 59.0499 79.7 61.8999 76.1Z" fill="white" stroke="#061237" stroke-width="3" stroke-miterlimit="10"/>
<path d="M78.8499 66.5V53C70.2999 53.6 62.6499 57.05 56.4999 62.3L66.0999 71.9C69.6999 69.05 74.0499 67.1 78.8499 66.5Z" fill="white" stroke="#061237" stroke-width="3" stroke-miterlimit="10"/>
<path d="M92.9499 105.8C89.9499 108.2 85.8999 109.85 81.6999 109.85C72.5499 109.85 64.8999 103.25 63.8499 94.25" stroke="#061237" stroke-width="3" stroke-miterlimit="10"/>
<path d="M84.2499 73.85C93.2499 74.9 99.8499 82.4 99.8499 91.7C99.8499 95.9 98.3499 99.8 95.7999 102.8" stroke="#061237" stroke-width="3" stroke-miterlimit="10"/>
<path d="M63.8499 89.1499C64.2999 86.5999 65.6499 83 67.5999 80.45Z" fill="white"/>
<path d="M63.8499 89.1499C64.2999 86.5999 65.6499 83 67.5999 80.45" stroke="#061237" stroke-width="3" stroke-miterlimit="10"/>
<path d="M70.1499 77.75C72.6999 75.8 76.4499 74.3 78.9999 73.85Z" fill="white"/>
<path d="M70.1499 77.75C72.6999 75.8 76.4499 74.3 78.9999 73.85" stroke="#061237" stroke-width="3" stroke-miterlimit="10"/>
</svg>
