<svg width="164" height="184" viewBox="0 0 164 184" fill="none" xmlns="http://www.w3.org/2000/svg">
<path d="M73.1935 4.94025C78.6635 1.87168 85.3365 1.87167 90.8065 4.94024L154.807 40.8427C160.485 44.0279 164 50.0309 164 56.5413V127.459C164 133.969 160.484 139.972 154.807 143.157L90.8065 179.06C85.3365 182.128 78.6635 182.128 73.1935 179.06L9.19348 143.157C3.51549 139.972 0 133.969 0 127.459V56.5413C0 50.0309 3.5155 44.0279 9.19348 40.8427L73.1935 4.94025Z" fill="white"/>
<g clip-path="url(#clip0_2012_532)">
<path d="M111.987 115.702C128.31 99.2211 128.183 72.6284 111.702 56.3054C95.2211 39.9824 68.6284 40.1103 52.3054 56.591C35.9824 73.0717 36.1103 99.6644 52.591 115.987C69.0717 132.31 95.6644 132.183 111.987 115.702Z" fill="white"/>
<path d="M77.684 50.1748L73.184 47.1748L68.684 50.1748L64.184 47.1748L59.684 50.1748L53.684 47.1748V107.175C53.684 110.475 56.384 113.175 59.684 113.175H83.684V47.1748L77.684 50.1748Z" fill="white"/>
<path d="M71.684 60.6748C68.384 60.6748 65.684 63.3748 65.684 66.6748V107.175C65.684 110.475 62.984 113.175 59.684 113.175H77.684V60.6748H71.684Z" fill="white"/>
<path d="M79.184 83.1748V66.6748C79.184 63.3748 76.484 60.6748 73.184 60.6748H103.184C106.484 60.6748 109.184 63.3748 109.184 66.6748V83.1748H79.184Z" fill="white"/>
<path d="M83.684 56.1748V47.1748L77.684 50.1748L73.184 47.1748L68.684 50.1748L64.184 47.1748L59.684 50.1748L53.684 47.1748V107.175C53.684 110.475 56.384 113.175 59.684 113.175" stroke="#061237" stroke-width="2.25" stroke-miterlimit="10"/>
<path d="M59.684 113.175C62.984 113.175 65.684 110.475 65.684 107.175V66.6748C65.684 63.3748 68.384 60.6748 71.684 60.6748H73.184" stroke="#061237" stroke-width="2.25" stroke-miterlimit="10"/>
<path d="M73.184 128.175V81.6748C73.184 80.0248 74.534 78.6748 76.184 78.6748H112.184C113.834 78.6748 115.184 80.0248 115.184 81.6748V128.175C115.184 129.825 113.834 131.175 112.184 131.175H76.184C74.534 131.175 73.184 129.825 73.184 128.175Z" fill="white" stroke="#061237" stroke-width="2.25" stroke-miterlimit="10"/>
<path d="M106.184 90.6748H82.184V99.6748H106.184V90.6748Z" fill="white" stroke="#E01760" stroke-width="2.25" stroke-miterlimit="10"/>
<path d="M80.684 105.675H86.684" stroke="#E01760" stroke-width="2.25" stroke-miterlimit="10"/>
<path d="M91.184 105.675H97.184" stroke="#E01760" stroke-width="2.25" stroke-miterlimit="10"/>
<path d="M101.684 105.675H107.684" stroke="#E01760" stroke-width="2.25" stroke-miterlimit="10"/>
<path d="M80.684 111.675H86.684" stroke="#E01760" stroke-width="2.25" stroke-miterlimit="10"/>
<path d="M91.184 111.675H97.184" stroke="#E01760" stroke-width="2.25" stroke-miterlimit="10"/>
<path d="M101.684 111.675H107.684" stroke="#E01760" stroke-width="2.25" stroke-miterlimit="10"/>
<path d="M101.684 117.675H107.684" stroke="#E01760" stroke-width="2.25" stroke-miterlimit="10"/>
<path d="M97.184 117.675H91.184" stroke="#E01760" stroke-width="2.25" stroke-miterlimit="10"/>
<path d="M86.684 117.675H80.684" stroke="#E01760" stroke-width="2.25" stroke-miterlimit="10"/>
<path d="M79.184 83.1748V66.6748C79.184 63.3748 76.484 60.6748 73.184 60.6748H103.184C106.484 60.6748 109.184 63.3748 109.184 66.6748V83.1748H79.184Z" fill="white" stroke="#061237" stroke-width="2.25" stroke-miterlimit="10"/>
<path d="M59.684 113.175H70.184" stroke="#061237" stroke-width="2.25" stroke-miterlimit="10"/>
</g>
<defs>
<clipPath id="clip0_2012_532">
<rect width="112.5" height="112.5" fill="white" transform="translate(25.75 29.75)"/>
</clipPath>
</defs>
</svg>
