<svg width="164" height="184" viewBox="0 0 164 184" fill="none" xmlns="http://www.w3.org/2000/svg">
<path d="M73.1935 4.94025C78.6635 1.87168 85.3365 1.87167 90.8065 4.94024L154.807 40.8427C160.485 44.0279 164 50.0309 164 56.5413V127.459C164 133.969 160.484 139.972 154.807 143.157L90.8065 179.06C85.3365 182.128 78.6635 182.128 73.1935 179.06L9.19348 143.157C3.51549 139.972 0 133.969 0 127.459V56.5413C0 50.0309 3.5155 44.0279 9.19348 40.8427L73.1935 4.94025Z" fill="white"/>
<path d="M64.6 98.45C81.0857 98.45 94.45 85.0857 94.45 68.6C94.45 52.1143 81.0857 38.75 64.6 38.75C48.1143 38.75 34.75 52.1143 34.75 68.6C34.75 85.0857 48.1143 98.45 64.6 98.45Z" fill="white"/>
<path d="M120.25 71.6H52.75C51.1 71.6 49.75 72.95 49.75 74.6V121.1H123.25V74.6C123.25 72.95 121.9 71.6 120.25 71.6Z" fill="white"/>
<path d="M49.75 119.6V74.6C49.75 72.95 51.1 71.6 52.75 71.6H120.25C121.9 71.6 123.25 72.95 123.25 74.6V119.6" stroke="#061237" stroke-width="2.25" stroke-miterlimit="10"/>
<path d="M129.25 56.6V92.75C129.25 95.15 127.3 97.1 124.9 97.1H97.6L85.45 108.65C84.55 109.7 82.75 109.1 82.75 107.75V97.1H75.25C72.7 97.1 70.75 95 70.75 92.6V56.6C70.75 54.05 72.7 52.1 75.25 52.1H124.75C127.3 52.1 129.25 54.2 129.25 56.6Z" fill="white" stroke="#061237" stroke-width="2.25" stroke-miterlimit="10"/>
<path d="M93.25 74.6L99.25 80.6L112.75 64.1" stroke="#E01760" stroke-width="2.25" stroke-miterlimit="10" stroke-linecap="round" stroke-linejoin="round"/>
<path d="M111.25 74.6V86.6H87.1001V62.6H106.75" stroke="#061237" stroke-width="2.25" stroke-miterlimit="10" stroke-linecap="round" stroke-linejoin="round"/>
<path d="M43.75 76.1V74.6C43.75 69.65 47.8 65.6 52.75 65.6H66.25" stroke="#E01760" stroke-width="2.25" stroke-miterlimit="10"/>
<path d="M129.25 119.6H96.25L94.75 121.1H76.75L75.25 119.6H42.25V122.6C42.25 125 44.2 127.1 46.75 127.1H124.75C127.3 127.1 129.25 125.15 129.25 122.6V119.6Z" fill="white" stroke="#061237" stroke-width="2.25" stroke-miterlimit="10"/>
<path d="M57.25 133.1H81.25" stroke="#E01760" stroke-width="2.25" stroke-miterlimit="10"/>
</svg>
