<svg width="46" height="52" viewBox="0 0 46 52" fill="none" xmlns="http://www.w3.org/2000/svg">
<path d="M20.5397 1.3906C22.0664 0.527683 23.9336 0.527682 25.4603 1.3906L43.4603 11.5645C45.0296 12.4515 46 14.1146 46 15.9173V36.0827C46 37.8854 45.0296 39.5485 43.4603 40.4355L25.4603 50.6094C23.9336 51.4723 22.0664 51.4723 20.5397 50.6094L2.53971 40.4355C0.97037 39.5485 0 37.8854 0 36.0827V15.9173C0 14.1146 0.970368 12.4515 2.53971 11.5645L20.5397 1.3906Z" fill="#1657FF"/>
<path d="M31 14C28.7909 14 27 15.7909 27 18V29C27 31.2091 25.2091 33 23 33C20.7909 33 19 31.2091 19 29V22C19 19.7909 17.2091 18 15 18V29C15 33.4183 18.5817 37 23 37C27.4183 37 31 33.4183 31 29V14Z" fill="white"/>
</svg>
