<svg width="141" height="52" viewBox="0 0 141 52" fill="none" xmlns="http://www.w3.org/2000/svg">
<path d="M65.968 17.248V27.616C65.968 28.752 66.264 29.624 66.856 30.232C67.448 30.824 68.28 31.12 69.352 31.12C70.44 31.12 71.28 30.824 71.872 30.232C72.464 29.624 72.76 28.752 72.76 27.616V17.248H76.144V27.592C76.144 29.016 75.832 30.224 75.208 31.216C74.6 32.192 73.776 32.928 72.736 33.424C71.712 33.92 70.568 34.168 69.304 34.168C68.056 34.168 66.92 33.92 65.896 33.424C64.888 32.928 64.088 32.192 63.496 31.216C62.904 30.224 62.608 29.016 62.608 27.592V17.248H65.968ZM82.7504 22.624C83.1824 22.016 83.7744 21.512 84.5264 21.112C85.2944 20.696 86.1664 20.488 87.1424 20.488C88.2784 20.488 89.3024 20.768 90.2144 21.328C91.1424 21.888 91.8704 22.688 92.3984 23.728C92.9424 24.752 93.2144 25.944 93.2144 27.304C93.2144 28.664 92.9424 29.872 92.3984 30.928C91.8704 31.968 91.1424 32.776 90.2144 33.352C89.3024 33.928 88.2784 34.216 87.1424 34.216C86.1664 34.216 85.3024 34.016 84.5504 33.616C83.8144 33.216 83.2144 32.712 82.7504 32.104V40.336H79.3904V20.704H82.7504V22.624ZM89.7824 27.304C89.7824 26.504 89.6144 25.816 89.2784 25.24C88.9584 24.648 88.5264 24.2 87.9824 23.896C87.4544 23.592 86.8784 23.44 86.2544 23.44C85.6464 23.44 85.0704 23.6 84.5264 23.92C83.9984 24.224 83.5664 24.672 83.2304 25.264C82.9104 25.856 82.7504 26.552 82.7504 27.352C82.7504 28.152 82.9104 28.848 83.2304 29.44C83.5664 30.032 83.9984 30.488 84.5264 30.808C85.0704 31.112 85.6464 31.264 86.2544 31.264C86.8784 31.264 87.4544 31.104 87.9824 30.784C88.5264 30.464 88.9584 30.008 89.2784 29.416C89.6144 28.824 89.7824 28.12 89.7824 27.304ZM99.016 22.768C99.448 22.064 100.008 21.512 100.696 21.112C101.4 20.712 102.2 20.512 103.096 20.512V24.04H102.208C101.152 24.04 100.352 24.288 99.808 24.784C99.28 25.28 99.016 26.144 99.016 27.376V34H95.656V20.704H99.016V22.768ZM117.719 27.064C117.719 27.544 117.687 27.976 117.623 28.36H107.903C107.983 29.32 108.319 30.072 108.911 30.616C109.503 31.16 110.231 31.432 111.095 31.432C112.343 31.432 113.231 30.896 113.759 29.824H117.383C116.999 31.104 116.263 32.16 115.175 32.992C114.087 33.808 112.751 34.216 111.167 34.216C109.887 34.216 108.735 33.936 107.711 33.376C106.703 32.8 105.911 31.992 105.335 30.952C104.775 29.912 104.495 28.712 104.495 27.352C104.495 25.976 104.775 24.768 105.335 23.728C105.895 22.688 106.679 21.888 107.687 21.328C108.695 20.768 109.855 20.488 111.167 20.488C112.431 20.488 113.559 20.76 114.551 21.304C115.559 21.848 116.335 22.624 116.879 23.632C117.439 24.624 117.719 25.768 117.719 27.064ZM114.239 26.104C114.223 25.24 113.911 24.552 113.303 24.04C112.695 23.512 111.951 23.248 111.071 23.248C110.239 23.248 109.535 23.504 108.959 24.016C108.399 24.512 108.055 25.208 107.927 26.104H114.239ZM125.26 34.216C124.172 34.216 123.196 34.024 122.332 33.64C121.468 33.24 120.78 32.704 120.268 32.032C119.772 31.36 119.5 30.616 119.452 29.8H122.836C122.9 30.312 123.148 30.736 123.58 31.072C124.028 31.408 124.58 31.576 125.236 31.576C125.876 31.576 126.372 31.448 126.724 31.192C127.092 30.936 127.276 30.608 127.276 30.208C127.276 29.776 127.052 29.456 126.604 29.248C126.172 29.024 125.476 28.784 124.516 28.528C123.524 28.288 122.708 28.04 122.068 27.784C121.444 27.528 120.9 27.136 120.436 26.608C119.988 26.08 119.764 25.368 119.764 24.472C119.764 23.736 119.972 23.064 120.388 22.456C120.82 21.848 121.428 21.368 122.212 21.016C123.012 20.664 123.948 20.488 125.02 20.488C126.604 20.488 127.868 20.888 128.812 21.688C129.756 22.472 130.276 23.536 130.372 24.88H127.156C127.108 24.352 126.884 23.936 126.484 23.632C126.1 23.312 125.58 23.152 124.924 23.152C124.316 23.152 123.844 23.264 123.508 23.488C123.188 23.712 123.028 24.024 123.028 24.424C123.028 24.872 123.252 25.216 123.7 25.456C124.148 25.68 124.844 25.912 125.788 26.152C126.748 26.392 127.54 26.64 128.164 26.896C128.788 27.152 129.324 27.552 129.772 28.096C130.236 28.624 130.476 29.328 130.492 30.208C130.492 30.976 130.276 31.664 129.844 32.272C129.428 32.88 128.82 33.36 128.02 33.712C127.236 34.048 126.316 34.216 125.26 34.216ZM137.162 23.464V29.896C137.162 30.344 137.266 30.672 137.474 30.88C137.698 31.072 138.066 31.168 138.578 31.168H140.138V34H138.026C135.194 34 133.778 32.624 133.778 29.872V23.464H132.194V20.704H133.778V17.416H137.162V20.704H140.138V23.464H137.162Z" fill="#061237"/>
<path d="M20.5397 1.3906C22.0664 0.527683 23.9336 0.527682 25.4603 1.3906L43.4603 11.5645C45.0296 12.4515 46 14.1146 46 15.9173V36.0827C46 37.8854 45.0296 39.5485 43.4603 40.4355L25.4603 50.6094C23.9336 51.4723 22.0664 51.4723 20.5397 50.6094L2.53971 40.4355C0.97037 39.5485 0 37.8854 0 36.0827V15.9173C0 14.1146 0.970368 12.4515 2.53971 11.5645L20.5397 1.3906Z" fill="#1657FF"/>
<path d="M31 14C28.7909 14 27 15.7909 27 18V29C27 31.2091 25.2091 33 23 33C20.7909 33 19 31.2091 19 29V22C19 19.7909 17.2091 18 15 18V29C15 33.4183 18.5817 37 23 37C27.4183 37 31 33.4183 31 29V14Z" fill="white"/>
</svg>
